<svg width="76" height="76" viewBox="0 0 76 76" fill="none" xmlns="http://www.w3.org/2000/svg">
<circle cx="38" cy="38" r="36.5" stroke="#6ACF46" stroke-width="3"/>
<mask id="path-2-outside-1" maskUnits="userSpaceOnUse" x="18" y="19" width="35" height="31" fill="black">
<rect fill="white" x="18" y="19" width="35" height="31"/>
<path d="M50.6915 48.1376H27.3844C26.9998 48.1376 26.6921 47.9864 26.5383 47.684C26.3075 47.3816 26.3075 47.0037 26.4614 46.7013L28.4613 41.7122L26.4614 23.1166H20V21H27.3844C27.9229 21 28.3844 21.378 28.4613 21.9071L30.6151 41.6367C30.6151 41.7878 30.6151 41.939 30.5382 42.1658L28.9998 45.9454H50.6915V48.1376Z"/>
</mask>
<path d="M50.6915 48.1376H27.3844C26.9998 48.1376 26.6921 47.9864 26.5383 47.684C26.3075 47.3816 26.3075 47.0037 26.4614 46.7013L28.4613 41.7122L26.4614 23.1166H20V21H27.3844C27.9229 21 28.3844 21.378 28.4613 21.9071L30.6151 41.6367C30.6151 41.7878 30.6151 41.939 30.5382 42.1658L28.9998 45.9454H50.6915V48.1376Z" fill="#6ACF46"/>
<path d="M26.5383 47.684L27.8752 47.0038L27.8134 46.8823L27.7307 46.774L26.5383 47.684ZM26.4614 46.7013L27.7983 47.3815L27.8287 47.3217L27.8537 47.2594L26.4614 46.7013ZM28.4613 41.7122L29.8536 42.2704L29.9927 41.9235L29.9527 41.5518L28.4613 41.7122ZM26.4614 23.1166L27.9528 22.9562L27.8087 21.6166H26.4614V23.1166ZM20 23.1166H18.5V24.6166H20V23.1166ZM20 21V19.5H18.5V21H20ZM28.4613 21.9071L29.9525 21.7443L29.9496 21.7178L29.9457 21.6913L28.4613 21.9071ZM30.6151 41.6367H32.1151V41.555L32.1062 41.4739L30.6151 41.6367ZM30.5382 42.1658L31.9275 42.7313L31.9443 42.6899L31.9587 42.6476L30.5382 42.1658ZM28.9998 45.9454L27.6104 45.3799L26.7697 47.4454H28.9998V45.9454ZM50.6915 45.9454H52.1915V44.4454H50.6915V45.9454ZM50.6915 46.6376H27.3844V49.6376H50.6915V46.6376ZM27.3844 46.6376C27.3859 46.6376 27.4041 46.6377 27.4359 46.6447C27.4681 46.6518 27.5155 46.6664 27.5712 46.6956C27.6946 46.7603 27.807 46.8698 27.8752 47.0038L25.2014 48.3642C25.6788 49.3025 26.6019 49.6376 27.3844 49.6376V46.6376ZM27.7307 46.774C27.8043 46.8705 27.8466 46.9904 27.8532 47.108C27.8594 47.2181 27.8343 47.3106 27.7983 47.3815L25.1245 46.0211C24.7468 46.7634 24.7178 47.771 25.3459 48.594L27.7307 46.774ZM27.8537 47.2594L29.8536 42.2704L27.069 41.1541L25.0691 46.1432L27.8537 47.2594ZM29.9527 41.5518L27.9528 22.9562L24.97 23.277L26.9699 41.8726L29.9527 41.5518ZM26.4614 21.6166H20V24.6166H26.4614V21.6166ZM21.5 23.1166V21H18.5V23.1166H21.5ZM20 22.5H27.3844V19.5H20V22.5ZM27.3844 22.5C27.224 22.5 27.0137 22.3759 26.9769 22.1229L29.9457 21.6913C29.7551 20.38 28.6217 19.5 27.3844 19.5V22.5ZM26.9702 22.0699L29.124 41.7994L32.1062 41.4739L29.9525 21.7443L26.9702 22.0699ZM29.1151 41.6367C29.1151 41.6565 29.1151 41.6695 29.115 41.6817C29.1149 41.6931 29.1148 41.7002 29.1146 41.705C29.1144 41.7136 29.1142 41.7117 29.115 41.7043C29.1159 41.6964 29.1173 41.6883 29.1187 41.6817C29.1201 41.6754 29.1205 41.6758 29.1177 41.684L31.9587 42.6476C32.1163 42.183 32.1151 41.8326 32.1151 41.6367H29.1151ZM29.1489 41.6003L27.6104 45.3799L30.3891 46.5109L31.9275 42.7313L29.1489 41.6003ZM28.9998 47.4454H50.6915V44.4454H28.9998V47.4454ZM49.1915 45.9454V48.1376H52.1915V45.9454H49.1915Z" fill="#6ACF46" mask="url(#path-2-outside-1)"/>
<path d="M29.038 43.0861L29.2002 43.8034L29.9205 43.6554L55.2917 38.4421C56.0678 38.3072 56.7496 37.652 56.7496 36.7222V26.2905C56.7496 25.2592 55.9399 24.4822 54.9227 24.4822H28.4619H27.7119V25.2322V27.3488V28.0988H28.4619H53.0958V35.2778L29.1586 40.1448L28.4074 40.2975L28.5765 41.0452L29.038 43.0861Z" fill="#6ACF46" stroke="#6ACF46" stroke-width="1.5"/>
<path d="M46.7881 50.2551C46.7881 52.9493 49.0593 55.1627 51.7687 55.1627C54.4782 55.1627 56.7494 52.9493 56.7494 50.2551C56.7494 47.5609 54.4782 45.3475 51.7687 45.3475C49.0593 45.3475 46.7881 47.5609 46.7881 50.2551ZM50.365 50.2551C50.365 49.4893 50.9991 48.8885 51.7687 48.8885C52.5384 48.8885 53.1725 49.4893 53.1725 50.2551C53.1725 51.0381 52.5976 51.6217 51.7687 51.6217C50.9398 51.6217 50.365 51.0381 50.365 50.2551Z" fill="#6ACF46" stroke="#6ACF46" stroke-width="1.5"/>
<path d="M21.4041 50.2551C21.4041 52.9493 23.6753 55.1627 26.3847 55.1627C29.0942 55.1627 31.3654 52.9493 31.3654 50.2551C31.3654 47.5609 29.0942 45.3475 26.3847 45.3475C23.6753 45.3475 21.4041 47.5609 21.4041 50.2551ZM24.9809 50.2551C24.9809 49.4893 25.615 48.8885 26.3847 48.8885C27.1544 48.8885 27.7885 49.4893 27.7885 50.2551C27.7885 51.0381 27.2136 51.6217 26.3847 51.6217C25.5558 51.6217 24.9809 51.0381 24.9809 50.2551Z" fill="#6ACF46" stroke="#6ACF46" stroke-width="1.5"/>
</svg>
