<svg width="287" height="80" viewBox="0 0 287 80" fill="none" xmlns="http://www.w3.org/2000/svg">
<path d="M100.755 37.2826V16.2036H110.391C113.061 16.2036 115.109 16.9163 116.534 18.3416C117.739 19.5461 118.341 21.1722 118.341 23.2199C118.341 26.452 116.835 28.6302 113.824 29.7544L118.973 37.2826H113.553L108.976 30.5373H105.392V37.2826H100.755ZM105.392 26.442H110.09C111.214 26.442 112.087 26.171 112.71 25.6289C113.332 25.0668 113.643 24.324 113.643 23.4006C113.643 22.4169 113.322 21.6741 112.68 21.1722C112.037 20.6503 111.144 20.3893 110 20.3893H105.392V26.442Z" fill="#444444"/>
<path d="M129.389 37.644C126.94 37.644 124.922 36.8711 123.336 35.3253C121.75 33.7594 120.957 31.7318 120.957 29.2425C120.957 26.8937 121.71 24.9062 123.216 23.2801C124.722 21.654 126.629 20.841 128.937 20.841C131.487 20.841 133.434 21.6841 134.779 23.3705C136.124 25.0568 136.797 27.1346 136.797 29.6038C136.797 29.8447 136.777 30.2462 136.737 30.8084H125.504C125.725 31.8322 126.177 32.6151 126.86 33.1572C127.542 33.6992 128.405 33.9702 129.449 33.9702C130.875 33.9702 132.18 33.4181 133.364 32.314L135.984 34.6327C134.358 36.6402 132.159 37.644 129.389 37.644ZM125.444 27.9476H132.34C132.2 26.9037 131.828 26.0706 131.226 25.4483C130.644 24.8259 129.881 24.5148 128.937 24.5148C128.014 24.5148 127.241 24.8259 126.619 25.4483C126.016 26.0505 125.625 26.8836 125.444 27.9476Z" fill="#444444"/>
<path d="M140.208 37.2826V21.1421H144.785V23.4307C146.13 21.7042 147.706 20.841 149.513 20.841C151.239 20.841 152.584 21.373 153.548 22.437C154.512 23.501 154.993 24.9665 154.993 26.8335V37.2826H150.416V28.2789C150.416 27.2149 150.175 26.4018 149.694 25.8397C149.212 25.2776 148.529 24.9966 147.646 24.9966C146.763 24.9966 146.06 25.2776 145.538 25.8397C145.036 26.4018 144.785 27.2149 144.785 28.2789V37.2826H140.208Z" fill="#444444"/>
<path d="M164.42 37.5536C162.915 37.5536 161.75 37.1923 160.927 36.4696C160.124 35.7268 159.723 34.4721 159.723 32.7055V25.0568H157.795V21.1421H159.723V17.0166H164.3V21.1421H168.094V25.0568H164.3V31.9526C164.3 32.9966 164.792 33.5185 165.775 33.5185C166.578 33.5185 167.331 33.3278 168.034 32.9464V36.6201C166.99 37.2425 165.785 37.5536 164.42 37.5536Z" fill="#444444"/>
<path d="M195.161 37.7042L192.722 35.235C190.815 36.8008 188.757 37.5838 186.549 37.5838C184.481 37.5838 182.784 37.0317 181.459 35.9276C180.134 34.8033 179.472 33.3077 179.472 31.4407C179.472 28.8309 180.837 26.9037 183.567 25.659C182.584 24.2739 182.092 22.8485 182.092 21.383C182.092 19.8573 182.664 18.5524 183.808 17.4683C184.973 16.3843 186.528 15.8422 188.476 15.8422C190.242 15.8422 191.668 16.3542 192.752 17.378C193.856 18.4018 194.408 19.6766 194.408 21.2023C194.408 23.7318 192.932 25.5687 189.981 26.713L192.782 29.5135C193.444 28.4696 194.127 27.2651 194.83 25.8999L198.232 27.767C197.188 29.654 196.265 31.1396 195.462 32.2237L198.564 35.3253L195.161 37.7042ZM187.572 24.2739C188.536 23.9125 189.239 23.511 189.68 23.0693C190.142 22.6277 190.373 22.0756 190.373 21.4131C190.373 20.8109 190.192 20.3391 189.831 19.9978C189.469 19.6365 188.988 19.4558 188.385 19.4558C187.763 19.4558 187.261 19.6565 186.88 20.058C186.518 20.4595 186.338 20.9915 186.338 21.654C186.338 22.457 186.749 23.3303 187.572 24.2739ZM187.091 33.7895C188.094 33.7895 189.108 33.388 190.132 32.585L186.097 28.4897C184.792 29.1722 184.14 30.1158 184.14 31.3203C184.14 32.0631 184.411 32.6653 184.953 33.1271C185.515 33.5687 186.227 33.7895 187.091 33.7895Z" fill="#444444"/>
<path d="M218.471 37.5838C215.018 37.5838 212.037 36.4595 209.528 34.2111L212.268 30.9288C214.336 32.6352 216.433 33.4884 218.561 33.4884C219.505 33.4884 220.248 33.3077 220.79 32.9464C221.332 32.585 221.603 32.0831 221.603 31.4407C221.603 30.8385 221.322 30.3567 220.76 29.9953C220.198 29.6139 219.063 29.2023 217.357 28.7607C216.152 28.4595 215.179 28.1685 214.436 27.8874C213.693 27.5863 212.98 27.1948 212.298 26.713C211.635 26.2312 211.144 25.6289 210.822 24.9062C210.521 24.1634 210.371 23.2801 210.371 22.2563C210.371 20.3491 211.053 18.8134 212.418 17.649C213.804 16.4846 215.58 15.9025 217.748 15.9025C220.74 15.9025 223.349 16.7958 225.578 18.5825L223.169 22.0756C221.181 20.6904 219.354 19.9978 217.688 19.9978C216.825 19.9978 216.152 20.1785 215.671 20.5398C215.209 20.8811 214.978 21.3328 214.978 21.8949C214.978 22.5775 215.269 23.0894 215.851 23.4307C216.433 23.772 217.658 24.1835 219.525 24.6653C221.814 25.2676 223.5 26.0405 224.584 26.984C225.668 27.9276 226.21 29.2826 226.21 31.0493C226.21 33.0969 225.497 34.703 224.072 35.8673C222.667 37.0116 220.8 37.5838 218.471 37.5838Z" fill="#444444"/>
<path d="M234.33 37.5838C232.744 37.5838 231.419 37.1421 230.355 36.2588C229.311 35.3755 228.789 34.1509 228.789 32.585C228.789 30.8786 229.371 29.5938 230.536 28.7306C231.72 27.8673 233.306 27.4357 235.294 27.4357C236.639 27.4357 237.954 27.6565 239.238 28.0982V27.8272C239.238 25.8598 238.084 24.8761 235.775 24.8761C234.39 24.8761 232.905 25.1672 231.319 25.7494L230.174 22.2563C232.142 21.393 234.23 20.9614 236.438 20.9614C238.867 20.9614 240.684 21.5637 241.888 22.7682C243.053 23.9326 243.635 25.649 243.635 27.9175V37.2826H239.208V35.5361C237.984 36.9012 236.358 37.5838 234.33 37.5838ZM235.715 34.4219C236.779 34.4219 237.642 34.1609 238.305 33.639C238.967 33.0969 239.299 32.4144 239.299 31.5913V30.7782C238.435 30.3767 237.462 30.176 236.378 30.176C235.374 30.176 234.591 30.3767 234.029 30.7782C233.487 31.1597 233.216 31.7218 233.216 32.4646C233.216 33.0668 233.447 33.5486 233.908 33.91C234.37 34.2513 234.972 34.4219 235.715 34.4219Z" fill="#444444"/>
<path d="M247.784 37.2826V15.3002H252.362V37.2826H247.784Z" fill="#444444"/>
<path d="M264.309 37.644C261.86 37.644 259.842 36.8711 258.256 35.3253C256.67 33.7594 255.877 31.7318 255.877 29.2425C255.877 26.8937 256.63 24.9062 258.136 23.2801C259.642 21.654 261.549 20.841 263.857 20.841C266.407 20.841 268.354 21.6841 269.699 23.3705C271.044 25.0568 271.717 27.1346 271.717 29.6038C271.717 29.8447 271.697 30.2462 271.657 30.8084H260.424C260.645 31.8322 261.097 32.6151 261.78 33.1572C262.462 33.6992 263.325 33.9702 264.369 33.9702C265.795 33.9702 267.1 33.4181 268.284 32.314L270.904 34.6327C269.278 36.6402 267.079 37.644 264.309 37.644ZM260.364 27.9476H267.26C267.12 26.9037 266.748 26.0706 266.146 25.4483C265.564 24.8259 264.801 24.5148 263.857 24.5148C262.934 24.5148 262.161 24.8259 261.539 25.4483C260.936 26.0505 260.545 26.8836 260.364 27.9476Z" fill="#444444"/>
<path d="M280.789 37.5838C278.24 37.5838 275.931 36.7707 273.863 35.1446L275.821 32.1333C277.587 33.4181 279.284 34.0606 280.91 34.0606C282.195 34.0606 282.837 33.639 282.837 32.7958C282.837 32.6954 282.817 32.5951 282.777 32.4947C282.757 32.3943 282.706 32.304 282.626 32.2237C282.546 32.1434 282.456 32.0731 282.355 32.0129C282.275 31.9326 282.154 31.8623 281.994 31.8021C281.853 31.7218 281.723 31.6616 281.602 31.6214C281.502 31.5612 281.351 31.501 281.151 31.4407C280.95 31.3604 280.779 31.3002 280.639 31.2601C280.498 31.2199 280.307 31.1697 280.067 31.1095C279.826 31.0292 279.635 30.969 279.494 30.9288C278.812 30.7281 278.23 30.5273 277.748 30.3265C277.286 30.1057 276.794 29.8146 276.272 29.4533C275.75 29.0718 275.349 28.6001 275.068 28.038C274.807 27.4558 274.676 26.7833 274.676 26.0204C274.676 24.4345 275.238 23.1898 276.363 22.2864C277.487 21.3629 278.892 20.9012 280.579 20.9012C282.747 20.9012 284.754 21.5235 286.601 22.7682L284.855 25.9301C283.148 24.9263 281.693 24.4244 280.488 24.4244C279.364 24.4244 278.802 24.8159 278.802 25.5988C278.802 26.1409 279.725 26.723 281.572 27.3454C281.793 27.4257 281.964 27.4859 282.084 27.526C282.626 27.7067 283.088 27.8774 283.469 28.038C283.851 28.1986 284.282 28.4194 284.764 28.7005C285.246 28.9815 285.627 29.2826 285.908 29.6038C286.21 29.905 286.461 30.2964 286.661 30.7782C286.862 31.2601 286.962 31.792 286.962 32.3742C286.962 34.1007 286.39 35.4056 285.246 36.2889C284.122 37.1521 282.636 37.5838 280.789 37.5838Z" fill="#444444"/>
<path d="M110.843 67.7569C107.811 67.7569 105.292 66.713 103.284 64.6252C101.277 62.5173 100.273 59.9275 100.273 56.856C100.273 53.8247 101.287 51.255 103.315 49.1471C105.342 47.0191 107.882 45.9552 110.933 45.9552C112.7 45.9552 114.205 46.2462 115.45 46.8284C116.695 47.3905 117.909 48.2337 119.094 49.3579L117.528 51.0442C115.5 49.117 113.292 48.1534 110.903 48.1534C108.574 48.1534 106.627 48.9865 105.061 50.6528C103.515 52.319 102.742 54.3868 102.742 56.856C102.742 59.3052 103.525 61.373 105.091 63.0593C106.657 64.7255 108.594 65.5587 110.903 65.5587C112.268 65.5587 113.473 65.3077 114.517 64.8058C115.56 64.304 116.624 63.5411 117.709 62.5173L119.274 64.1735C118.09 65.3579 116.845 66.2513 115.54 66.8535C114.235 67.4558 112.67 67.7569 110.843 67.7569Z" fill="#444444"/>
<path d="M135.671 65.378C134.105 66.9639 132.168 67.7569 129.86 67.7569C127.551 67.7569 125.624 66.9639 124.078 65.378C122.552 63.792 121.789 61.8749 121.789 59.6264C121.789 57.3981 122.562 55.4909 124.108 53.905C125.674 52.2989 127.611 51.4959 129.92 51.4959C132.228 51.4959 134.156 52.2889 135.701 53.8749C137.247 55.4608 138.02 57.378 138.02 59.6264C138.02 61.8548 137.237 63.772 135.671 65.378ZM129.92 65.6791C131.586 65.6791 132.951 65.0969 134.015 63.9326C135.099 62.7682 135.641 61.3328 135.641 59.6264C135.641 57.9401 135.079 56.5047 133.955 55.3203C132.851 54.1358 131.486 53.5436 129.86 53.5436C128.193 53.5436 126.828 54.1358 125.764 55.3203C124.7 56.4846 124.168 57.92 124.168 59.6264C124.168 61.3127 124.72 62.7481 125.824 63.9326C126.929 65.0969 128.294 65.6791 129.92 65.6791Z" fill="#444444"/>
<path d="M142.22 67.3956V51.8272H144.539V54.447C145.844 52.4796 147.52 51.4959 149.568 51.4959C151.897 51.4959 153.563 52.5298 154.567 54.5976C155.912 52.5298 157.739 51.4959 160.047 51.4959C161.834 51.4959 163.239 52.058 164.263 53.1823C165.307 54.3065 165.829 55.8322 165.829 57.7594V67.3956H163.51V58.3015C163.51 56.7958 163.149 55.6415 162.426 54.8385C161.724 54.0154 160.74 53.6038 159.475 53.6038C158.251 53.6038 157.227 54.0355 156.404 54.8987C155.581 55.7619 155.169 56.9363 155.169 58.4219V67.3956H152.88V58.2412C152.88 56.7958 152.519 55.6616 151.796 54.8385C151.094 54.0154 150.12 53.6038 148.875 53.6038C147.631 53.6038 146.597 54.0656 145.774 54.989C144.951 55.9125 144.539 57.0869 144.539 58.5122V67.3956H142.22Z" fill="#444444"/>
<path d="M170.863 72.2136V51.8272H173.182V54.9589C174.748 52.6503 176.735 51.4959 179.144 51.4959C181.132 51.4959 182.868 52.2387 184.354 53.7243C185.839 55.1898 186.582 57.1572 186.582 59.6264C186.582 62.0555 185.839 64.0129 184.354 65.4984C182.868 66.984 181.132 67.7268 179.144 67.7268C176.695 67.7268 174.707 66.6227 173.182 64.4144V72.2136H170.863ZM178.722 65.649C180.288 65.649 181.593 65.107 182.637 64.0229C183.681 62.9188 184.203 61.4432 184.203 59.5963C184.203 57.8096 183.671 56.3642 182.607 55.26C181.543 54.1358 180.248 53.5737 178.722 53.5737C177.217 53.5737 175.902 54.1459 174.778 55.2902C173.653 56.4345 173.091 57.8799 173.091 59.6264C173.091 61.373 173.653 62.8184 174.778 63.9627C175.902 65.0869 177.217 65.649 178.722 65.649Z" fill="#444444"/>
<path d="M195.497 67.7268C193.911 67.7268 192.546 67.2952 191.402 66.4319C190.258 65.5687 189.685 64.3642 189.685 62.8184C189.685 61.1923 190.288 59.9376 191.492 59.0543C192.697 58.171 194.313 57.7293 196.34 57.7293C197.946 57.7293 199.532 57.9501 201.098 58.3918V57.91C201.098 56.5449 200.697 55.501 199.894 54.7782C199.091 54.0555 197.956 53.6942 196.491 53.6942C194.965 53.6942 193.389 54.0656 191.763 54.8084L191.071 52.9112C192.998 52.0279 194.885 51.5863 196.732 51.5863C198.94 51.5863 200.616 52.1584 201.761 53.3027C202.845 54.3868 203.387 55.9125 203.387 57.8799V67.3956H201.098V65.0769C199.713 66.8435 197.846 67.7268 195.497 67.7268ZM195.949 65.8598C197.394 65.8598 198.619 65.4683 199.623 64.6854C200.626 63.9025 201.128 62.8987 201.128 61.6741V60.2287C199.603 59.787 198.087 59.5662 196.581 59.5662C195.156 59.5662 194.042 59.8573 193.239 60.4395C192.436 61.0016 192.034 61.7745 192.034 62.7582C192.034 63.7017 192.406 64.4545 193.148 65.0166C193.911 65.5787 194.845 65.8598 195.949 65.8598Z" fill="#444444"/>
<path d="M208.298 67.3956V51.8272H210.617V54.5373C211.842 52.5097 213.618 51.4959 215.947 51.4959C217.794 51.4959 219.249 52.0681 220.313 53.2124C221.377 54.3366 221.909 55.8422 221.909 57.7293V67.3956H219.591V58.3015C219.591 56.836 219.209 55.6917 218.446 54.8686C217.704 54.0254 216.65 53.6038 215.285 53.6038C213.939 53.6038 212.825 54.0555 211.942 54.9589C211.059 55.8623 210.617 57.0367 210.617 58.4821V67.3956H208.298Z" fill="#444444"/>
<path d="M228.822 72.304C227.698 72.304 226.594 72.043 225.51 71.521L226.293 69.6841C227.035 70.0656 227.848 70.2563 228.732 70.2563C229.434 70.2563 230.027 70.0355 230.508 69.5938C230.99 69.1722 231.462 68.4194 231.924 67.3353L224.847 51.8272H227.407L233.068 64.8058L238.067 51.8272H240.536L234.002 67.9075C233.339 69.4934 232.606 70.6176 231.803 71.2801C231 71.9627 230.007 72.304 228.822 72.304Z" fill="#444444"/>
<path d="M10.6653 10.6666H21.6369L30.7777 23.8141V17.5104C30.7777 17.3707 30.7777 17.0614 30.7777 16.9517C30.7777 16.6344 30.7777 16.6723 30.7777 16.393C30.7777 16.3337 30.7551 16.0053 30.3587 15.6947C30.0794 15.4757 29.5735 15.4757 29.5207 15.4757H27.9843V10.6666H40.2153V15.4757H38.9719C38.3258 15.4757 37.9113 15.6098 37.7284 15.878C37.5578 16.1462 37.4724 16.5059 37.4724 16.9569V37.4999H29.0792L20.3025 23.3765C20.3025 23.3765 20.3025 29.231 20.3025 30.2203C20.3025 30.2203 20.3025 30.6625 20.3025 31.2096C20.3025 31.7566 20.3025 32.0445 20.4422 32.3153C20.5819 32.586 20.8612 32.709 21.2802 32.709C21.6992 32.709 23.2356 32.709 23.2356 32.709V37.4999H10.6653V32.709H11.8905C12.5488 32.709 12.9633 32.5749 13.1339 32.3067C13.3046 32.0385 13.3899 31.6728 13.3899 31.2096C13.3899 30.7463 13.3899 16.9569 13.3899 16.9569C13.3899 16.5059 13.3046 16.1462 13.1339 15.878C12.9755 15.6098 12.561 15.4757 11.8905 15.4757H10.6653V10.6666Z" fill="#494949"/>
<path d="M42.8485 37.4999V32.709H44.0736C44.7807 32.709 45.2196 32.581 45.3902 32.325C45.5609 32.0568 45.6462 31.685 45.6462 31.2096V16.9569C45.6462 16.4937 45.5609 16.134 45.3902 15.878C45.2196 15.6098 44.7807 15.4757 44.0736 15.4757H42.2306V10.6666H54.1857C56.5751 10.6666 58.678 10.7885 60.4944 11.0323C62.3229 11.2761 63.8894 11.715 65.1938 12.3489C66.5104 12.9828 67.5283 13.8849 68.2476 15.0552C68.9668 16.2133 69.3264 17.7005 69.3264 19.5169C69.3264 21.2602 68.9302 22.6926 68.1378 23.8141C67.3455 24.9356 66.3519 25.7768 65.1573 26.3376C63.9748 26.8861 62.7801 27.2519 61.5732 27.4347C60.3785 27.6176 59.2022 27.709 58.044 27.709L54.8257 27.6724V31.2096C54.8257 31.685 54.9172 32.0568 55.1 32.325C55.2829 32.581 55.7156 32.709 56.3983 32.709H59.1412V37.4999H42.8485ZM54.8257 16.3352V22.0221C56.1789 22.0221 57.2334 21.8149 57.9892 21.4004C58.7572 20.9737 59.1412 20.1813 59.1412 19.0232C59.1412 17.9504 58.7633 17.2373 58.0075 16.8838C57.2638 16.518 56.2033 16.3352 54.8257 16.3352Z" fill="#494949"/>
<rect x="10.6653" y="44.0001" width="58.6665" height="23.9999" fill="#D52A2A"/>
<path d="M19.7464 61.0664C18.2254 61.0664 16.9672 60.5963 15.9716 59.6561C14.9761 58.7066 14.4783 57.4991 14.4783 56.0334C14.4783 54.6138 14.9715 53.4201 15.9578 52.4522C16.9533 51.4843 18.1978 51.0004 19.6911 51.0004C21.2213 51.0004 22.5302 51.4705 23.6179 52.4107L22.0417 54.305C21.3134 53.6966 20.5345 53.3924 19.7049 53.3924C19.0043 53.3924 18.4144 53.6505 17.9351 54.1667C17.4649 54.683 17.2299 55.319 17.2299 56.0749C17.2299 56.8584 17.4742 57.5037 17.9627 58.0107C18.4605 58.5084 19.0919 58.7573 19.857 58.7573C20.4838 58.7573 21 58.6237 21.4056 58.3563V57.181H19.4975V55.2176H23.9498V59.5731C22.7422 60.5686 21.3411 61.0664 19.7464 61.0664Z" fill="white"/>
<path d="M25.437 60.8728V51.1939H30.0137C31.424 51.1939 32.4749 51.5396 33.1662 52.231C33.7378 52.8025 34.0235 53.5676 34.0235 54.5263C34.0235 55.9458 33.3598 56.9368 32.0324 57.4991L34.3415 60.8728H31.2443L29.2947 57.9415H28.1194V60.8728H25.437ZM28.1194 55.8398H29.8892C30.3409 55.8398 30.6912 55.7384 30.9401 55.5356C31.1982 55.3236 31.3273 55.0332 31.3273 54.6645C31.3273 54.2866 31.1982 54.0008 30.9401 53.8072C30.6912 53.6137 30.3363 53.5169 29.8754 53.5169H28.1194V55.8398Z" fill="white"/>
<path d="M43.9617 59.6008C42.9661 60.5779 41.7263 61.0664 40.2422 61.0664C38.7581 61.0664 37.5183 60.5825 36.5227 59.6146C35.5364 58.6375 35.0433 57.4437 35.0433 56.0334C35.0433 54.6323 35.541 53.4431 36.5366 52.466C37.5413 51.4889 38.7858 51.0004 40.2699 51.0004C41.754 51.0004 42.9892 51.4889 43.9755 52.466C44.971 53.4339 45.4688 54.623 45.4688 56.0334C45.4688 57.4345 44.9664 58.6236 43.9617 59.6008ZM40.2699 58.6467C40.9981 58.6467 41.588 58.3932 42.0397 57.8862C42.5006 57.3792 42.7311 56.7616 42.7311 56.0334C42.7311 55.3144 42.496 54.7014 42.0259 54.1944C41.5558 53.6782 40.9612 53.4201 40.2422 53.4201C39.5232 53.4201 38.9333 53.6736 38.4724 54.1806C38.0207 54.6876 37.7948 55.3052 37.7948 56.0334C37.7948 56.7524 38.0253 57.37 38.4862 57.8862C38.9563 58.3932 39.5509 58.6467 40.2699 58.6467Z" fill="white"/>
<path d="M51.2216 61.0526C49.802 61.0526 48.7005 60.6839 47.917 59.9464C47.1334 59.209 46.7417 58.1028 46.7417 56.628V51.1939H49.4656V56.5726C49.4656 57.2548 49.6223 57.771 49.9357 58.1213C50.2583 58.4623 50.6962 58.6329 51.2493 58.6329C51.8023 58.6329 52.2356 58.4669 52.549 58.1351C52.8716 57.8032 53.0329 57.3055 53.0329 56.6418V51.1939H55.7569V56.5588C55.7569 58.0706 55.3559 59.1998 54.5539 59.9464C53.7612 60.6839 52.6504 61.0526 51.2216 61.0526Z" fill="white"/>
<path d="M57.3444 60.8728V51.1939H61.4925C62.7277 51.1939 63.7048 51.4981 64.4238 52.1065C65.152 52.7057 65.5161 53.5445 65.5161 54.623C65.5161 55.7292 65.1336 56.5865 64.3685 57.1949C63.6034 57.8032 62.5986 58.1074 61.3542 58.1074H60.0268V60.8728H57.3444ZM60.0268 56.0057H61.2989C61.7782 56.0057 62.1516 55.8905 62.4189 55.6601C62.6954 55.4296 62.8337 55.1162 62.8337 54.7198C62.8337 54.305 62.6954 53.9916 62.4189 53.7796C62.1516 53.5584 61.7736 53.4477 61.2851 53.4477H60.0268V56.0057Z" fill="white"/>
<path fill-rule="evenodd" clip-rule="evenodd" d="M77.3333 2.66667H2.66667V77.3333H77.3333V2.66667ZM0 0V80H80V0H0Z" fill="#D52A2A"/>
</svg>
