<svg width="76" height="76" viewBox="0 0 76 76" fill="none" xmlns="http://www.w3.org/2000/svg">
<circle cx="38" cy="38" r="36.5" stroke="#3844AC" stroke-width="3"/>
<path d="M59.722 40.5838L42.6372 29.3012C45.6796 27.7949 47.7857 24.6733 47.7857 21.0546C47.7857 15.9736 43.6525 11.8403 38.5714 11.8403C33.4904 11.8403 29.3571 15.9736 29.3571 21.0546H35.5C35.5 19.3614 36.8782 17.9832 38.5714 17.9832C40.2646 17.9832 41.6429 19.3614 41.6429 21.0546C41.6429 22.7478 40.2646 24.1261 38.5714 24.1261C36.8753 24.1261 35.5 25.5013 35.5 27.1975V28.6464L17.4134 40.6202V40.6219C15.2763 42.0369 14 44.4761 14 47.1458C14 49.2025 14.7559 51.1353 16.1311 52.5883C17.5033 54.0415 19.327 54.8403 21.2662 54.8403H21.2722L55.8813 54.8117C59.8856 54.8085 63.143 51.3544 63.143 47.1125C63.143 44.4396 61.8637 42.0003 59.7221 40.5838L59.722 40.5838ZM55.8767 48.6975H21.2706C21.1132 48.6975 20.8732 48.6615 20.5973 48.3705C20.2208 47.9731 20.1428 47.4857 20.1428 47.1453C20.1428 46.5424 20.3903 46.0175 20.8057 45.743L38.5729 33.9792L56.3371 45.71C56.751 45.9845 57 46.5094 57 47.1123C57 48.0031 56.4076 48.6975 55.8767 48.6975L55.8767 48.6975Z" fill="#3844AC"/>
</svg>
