<svg width="13" height="11" viewBox="0 0 13 11" fill="none" xmlns="http://www.w3.org/2000/svg">
<path fill-rule="evenodd" clip-rule="evenodd" d="M7.29221 8.19377C6.83133 8.64819 6.37542 9.09458 5.92344 9.54502C5.76541 9.7025 5.58765 9.78947 5.36099 9.77709C5.20661 9.76869 5.11996 9.6993 5.07265 9.5504C4.72676 8.46184 4.37522 7.37511 4.0309 6.28605C3.99735 6.18001 3.94682 6.12906 3.84159 6.09647C3.02601 5.8438 2.21206 5.58565 1.39915 5.32434C1.27879 5.28564 1.15692 5.23591 1.05249 5.1657C0.870734 5.04355 0.844796 4.84933 1.01077 4.7087C1.16413 4.57875 1.34595 4.46994 1.53222 4.39529C2.56277 3.98236 3.59857 3.58282 4.63249 3.17851C7.11963 2.20594 9.60683 1.23346 12.0938 0.260428C12.5706 0.0738897 12.941 0.332593 12.8963 0.853482C12.8669 1.19685 12.7787 1.53575 12.7079 1.87473C12.1568 4.51324 11.6035 7.15128 11.0509 9.78947C11.0499 9.79454 11.0495 9.79977 11.0484 9.80481C10.9133 10.4083 10.4805 10.5734 9.98698 10.2054C9.13033 9.56676 8.27582 8.92515 7.42027 8.28497C7.37982 8.25471 7.33798 8.22631 7.29221 8.19377ZM5.39917 9.02465C5.41249 8.96272 5.42173 8.93414 5.42443 8.90496C5.4788 8.31163 5.53562 7.71851 5.58375 7.12465C5.59446 6.99286 5.63326 6.89553 5.73389 6.80402C7.03211 5.62335 8.32631 4.43815 9.62153 3.25412C9.98998 2.91731 10.3599 2.58219 10.7248 2.24146C10.7631 2.20569 10.7714 2.13694 10.7937 2.08351C10.7373 2.06733 10.6742 2.02633 10.626 2.03993C10.5148 2.07134 10.4027 2.11617 10.3052 2.17831C8.37942 3.40554 6.45615 4.63672 4.53033 5.86383C4.43235 5.92625 4.40438 5.97764 4.44368 6.09724C4.74862 7.02533 5.04472 7.95641 5.34401 8.88639C5.35574 8.92285 5.37228 8.95768 5.39917 9.02465Z" fill="white"/>
</svg>
