<svg width="13" height="13" viewBox="0 0 13 13" fill="none" xmlns="http://www.w3.org/2000/svg">
<path fill-rule="evenodd" clip-rule="evenodd" d="M11.5771 9.11786C11.2683 8.86201 10.9421 8.62783 10.6163 8.39402C10.5482 8.34515 10.4802 8.2963 10.4123 8.24726C9.62923 7.68112 8.913 7.63711 8.32868 8.54796C8.00056 9.05933 7.54122 9.08173 7.06091 8.85739C5.73684 8.23936 4.71439 7.28711 4.11548 5.90174C3.85055 5.28882 3.85403 4.7393 4.47391 4.3058C4.80209 4.07654 5.13273 3.80526 5.10629 3.30432C5.07177 2.65113 3.53114 0.46828 2.92275 0.237889C2.671 0.142538 2.42029 0.148744 2.16416 0.237353C0.737579 0.73121 0.146687 1.93895 0.712579 3.36899C2.4008 7.63541 5.37178 10.6055 9.46151 12.4184C9.63152 12.4936 9.81527 12.536 9.95318 12.5677L9.95324 12.5677C10.0045 12.5795 10.0493 12.5899 10.0849 12.5999C11.016 12.6095 12.1067 11.6861 12.4217 10.7696C12.6883 9.99467 12.2254 9.6305 11.7652 9.26842L11.7651 9.2684C11.7018 9.21854 11.6384 9.16871 11.5771 9.11786ZM6.99142 0.675321C9.98128 1.14861 11.3602 2.6121 11.7409 5.71201C11.7486 5.77437 11.7497 5.84359 11.7508 5.91379V5.91381C11.7548 6.16597 11.759 6.43093 12.0694 6.43714C12.4161 6.44396 12.4032 6.14855 12.3917 5.88401V5.88398C12.3894 5.83202 12.3872 5.78124 12.3878 5.73419C12.4228 2.81464 9.94986 0.1081 7.07786 0.00830852C7.02693 0.0158541 6.96319 0.0113523 6.89512 0.00654452C6.67362 -0.00909974 6.40625 -0.0279836 6.38486 0.35443C6.36992 0.62469 6.60966 0.642641 6.83296 0.659361C6.88815 0.663493 6.94233 0.667549 6.99142 0.675321ZM7.57637 1.52528C7.53305 1.51991 7.48764 1.51219 7.44152 1.50434C7.1815 1.46009 6.89901 1.41202 6.84193 1.7609C6.7851 2.1101 7.05188 2.14775 7.2998 2.18273C7.35798 2.19094 7.41511 2.199 7.46679 2.21091C9.31339 2.63575 9.95637 3.32762 10.2604 5.21321C10.2692 5.26781 10.2728 5.32844 10.2765 5.39V5.39002C10.2912 5.63841 10.3067 5.90189 10.6704 5.84507C10.9246 5.80521 10.9173 5.58596 10.9107 5.38877V5.38875C10.9086 5.32505 10.9065 5.26366 10.9134 5.21135C10.9283 3.40105 9.42138 1.75334 7.57637 1.52528ZM7.29484 3.24304C7.3654 3.03187 7.55381 3.01048 7.74576 3.0056C8.56432 2.98468 9.52355 3.99445 9.50999 4.86807C9.51841 5.10687 9.49359 5.35833 9.21914 5.39204C9.02109 5.4161 8.89098 5.24509 8.87054 5.03404C8.79486 4.25643 8.3962 3.79663 7.63869 3.67144C7.41179 3.63393 7.18887 3.55867 7.29484 3.24304Z" fill="white"/>
</svg>
