<svg width="76" height="76" viewBox="0 0 76 76" fill="none" xmlns="http://www.w3.org/2000/svg">
<circle cx="38" cy="38" r="36.5" stroke="#DB0E7C" stroke-width="3"/>
<path d="M38.2557 17.4537C37.9287 17.104 37.4479 16.9411 36.9752 17.0192C36.5026 17.0973 36.1002 17.4062 35.9028 17.8426L22.9695 45.9247C22.39 45.773 21.793 45.6667 21.1667 45.6667C17.2152 45.6667 14 48.8818 14 52.8333C14 56.7848 17.2152 60 21.1667 60C25.1182 60 28.3333 56.7848 28.3333 52.8333C28.3333 51.6542 28.0198 50.5574 27.5131 49.5752L39.1917 23.9336C40.2962 21.7247 39.8456 19.1542 38.2557 17.4537ZM21.1667 57.1333C18.7955 57.1333 16.8667 55.2044 16.8667 52.8333C16.8667 50.4622 18.7955 48.5333 21.1667 48.5333C23.5378 48.5333 25.4666 50.4622 25.4666 52.8333C25.4666 55.2044 23.5378 57.1333 21.1667 57.1333Z" fill="#DB0E7C"/>
<path d="M38.3666 45.6667C37.7403 45.6667 37.1432 45.7731 36.5638 45.9248L34.4325 41.2971L31.3416 48.0847L32.0203 49.5751C31.5135 50.5572 31.2 51.6543 31.2 52.8334C31.2 56.7849 34.4151 60 38.3666 60C42.3181 60 45.5333 56.7849 45.5333 52.8334C45.5333 48.8819 42.3181 45.6667 38.3666 45.6667ZM38.3666 57.1334C35.9955 57.1334 34.0666 55.2045 34.0666 52.8334C34.0666 50.4623 35.9955 48.5334 38.3666 48.5334C40.7377 48.5334 42.6666 50.4623 42.6666 52.8334C42.6666 55.2045 40.7377 57.1334 38.3666 57.1334Z" fill="#DB0E7C"/>
<path d="M58.6243 17.0001C57.3636 17.0001 56.9066 17.0001 56.76 17.0001C56.715 17.0001 56.699 17.0001 56.6982 17.0001C56.431 17.0001 55.1341 17.0001 49.8333 17.0001C49.041 17.0001 48.3999 17.6411 48.3999 18.4334C48.3999 19.2256 49.041 19.8667 49.8333 19.8667H54.3244V22.7334H49.8333C49.041 22.7334 48.3999 23.3745 48.3999 24.1667C48.3999 24.959 49.041 25.6 49.8333 25.6H54.3244V28.4667H49.8333C49.041 28.4667 48.3999 29.1078 48.3999 29.9C48.3999 30.6923 49.041 31.3334 49.8333 31.3334H54.3244V34.2H49.8333C49.041 34.2 48.3999 34.8411 48.3999 35.6334C48.3999 36.4256 49.041 37.0667 49.8333 37.0667H54.3244V39.9333H49.8333C49.041 39.9333 48.3999 40.5744 48.3999 41.3667C48.3999 42.1589 49.041 42.8 49.8333 42.8H54.3244V45.6667H49.8333C49.041 45.6667 48.3999 46.3078 48.3999 47.1C48.3999 47.8923 49.041 48.5333 49.8333 48.5333H54.3244V51.4H49.8333C49.041 51.4 48.3999 52.0411 48.3999 52.8333C48.3999 53.6256 49.041 54.2667 49.8333 54.2667H54.3244V57.1333H49.8333C49.041 57.1333 48.3999 57.7744 48.3999 58.5666C48.3999 59.3589 49.041 60 49.8333 60C55.1258 60 56.428 60 56.6981 60C56.7455 60 56.7611 60 56.7608 60C56.9088 60 57.367 60 58.6243 60C60.9954 60 62.9243 58.0711 62.9243 55.7V21.3001C62.9243 18.9289 60.9954 17.0001 58.6243 17.0001Z" fill="#DB0E7C"/>
<path d="M23.6306 17.8428C23.4332 17.4065 23.0308 17.0974 22.5582 17.0195C22.0856 16.9413 21.6049 17.1041 21.2778 17.454C19.6878 19.1545 19.2373 21.7249 20.3417 23.9339L25.115 34.4141L28.1888 27.7401L23.6306 17.8428Z" fill="#DB0E7C"/>
</svg>
