<svg width="76" height="76" viewBox="0 0 76 76" fill="none" xmlns="http://www.w3.org/2000/svg">
<circle cx="38" cy="38" r="36.5" stroke="#FB6815" stroke-width="3"/>
<path d="M26.4857 16C25.2428 16 24 17.2157 24 18.4315V26.9416V30.5889C24 33.0204 26.4857 33.0204 26.4857 35.4518V57.3351C26.4857 58.5508 27.7285 59.7666 28.9714 59.7666H31.4571C32.6999 59.7666 33.9428 58.5508 33.9428 57.3351V35.4518C33.9428 33.0204 36.4285 33.0204 36.4285 30.5889V26.9416V25.7259V18.4315C36.4285 17.2157 35.1856 16 33.9428 16C33.3213 16 33.3213 16.7414 33.3213 17.2157V26.9416C33.3213 27.416 33.3213 28.1574 32.6999 28.1574C32.0785 28.1574 32.0785 27.416 32.0785 26.9416V17.2157C32.0785 16.7414 32.0785 16 31.4571 16H30.8357H28.9714C28.35 16 28.35 16.7414 28.35 17.2157V26.9416C28.35 27.416 28.35 28.1574 27.7285 28.1574C27.1071 28.1574 27.1071 27.416 27.1071 26.9416V17.2157C27.1071 16.7414 27.1071 16 26.4857 16ZM51.3426 16C48.8569 16 44.2148 16.5716 42.6427 19.6472C41.3999 22.0787 41.3999 28.1574 41.3999 30.5889V40.3147C41.3999 41.5305 42.6427 42.7462 43.8855 42.7462V57.3351C43.8855 58.5508 45.1284 59.7666 46.3712 59.7666H48.8569C50.0998 59.7666 51.3426 58.5508 51.3426 57.3351V16Z" fill="#FB6815"/>
</svg>
