<svg width="15" height="14" viewBox="0 0 15 14" fill="none" xmlns="http://www.w3.org/2000/svg">
<path fill-rule="evenodd" clip-rule="evenodd" d="M5.65542 3.75247C5.52745 3.44599 5.43041 3.43433 5.23653 3.4265C5.17053 3.42268 5.097 3.41887 5.01543 3.41887C4.76319 3.41887 4.4995 3.4926 4.34037 3.65554C4.1465 3.85343 3.66542 4.31512 3.66542 5.26181C3.66542 6.2086 4.35584 7.12425 4.44897 7.25243C4.54601 7.38031 5.79506 9.35144 7.73453 10.1548C9.25119 10.7833 9.70122 10.7251 10.0464 10.6514C10.5507 10.5428 11.1829 10.1702 11.342 9.72022C11.5011 9.27008 11.5011 8.88593 11.4545 8.80447C11.4079 8.723 11.2799 8.67659 11.086 8.57945C10.8921 8.48241 9.94945 8.0168 9.77104 7.95472C9.59645 7.88882 9.4297 7.91213 9.2979 8.09837C9.11166 8.35835 8.92944 8.62224 8.78197 8.78126C8.66564 8.90543 8.47548 8.921 8.31646 8.855C8.1031 8.7659 7.5058 8.55614 6.76876 7.90047C6.19848 7.39227 5.81063 6.75991 5.69822 6.56975C5.58571 6.37577 5.68657 6.26316 5.77577 6.15848C5.87281 6.03814 5.96583 5.95285 6.06277 5.84024C6.15981 5.72773 6.21405 5.66957 6.27613 5.53757C6.34213 5.40959 6.29552 5.27759 6.24901 5.18055C6.2024 5.0833 5.81455 4.13651 5.65542 3.75247ZM7.49804 0.399994C3.85958 0.399994 0.9 3.3604 0.9 6.99989C0.9 8.44323 1.36551 9.78189 2.15678 10.8683L1.33436 13.3205L3.87124 12.5098C4.91466 13.2004 6.15979 13.6 7.50196 13.6C11.1404 13.6 14.1 10.6394 14.1 7.0001C14.1 3.36061 11.1404 0.4002 7.50196 0.4002H7.49814V0.399994H7.49804Z" fill="white"/>
</svg>
